<svg xmlns="http://www.w3.org/2000/svg" width="40" height="40" viewBox="0 0 40 40" fill="none">
    <path d="M40 20C40 25.3678 37.8855 30.2419 34.4434 33.8341C30.8031 37.6341 25.6773 40 19.9997 40C14.3221 40 9.19691 37.6341 5.55661 33.8341C2.11479 30.2419 0 25.3678 0 20C0 8.95436 8.9543 0 19.9997 0C31.0457 0 40 8.95436 40 20Z" fill="white"/>
    <path d="M28.1707 12.9026C28.1707 17.4154 24.5123 21.0732 20.0003 21.0732C15.4873 21.0732 11.8294 17.4154 11.8294 12.9026C11.8294 8.39019 15.4873 4.73243 20.0003 4.73243C24.5123 4.73243 28.1707 8.39019 28.1707 12.9026Z" fill="#9CA3AF"/>
    <path d="M33.7656 32.1806C33.6055 32.3615 33.4411 32.5399 33.2739 32.7141C29.9286 36.2068 25.2179 38.3809 19.9997 38.3809C14.7821 38.3809 10.0709 36.2068 6.72559 32.7141C6.55786 32.5399 6.39396 32.3615 6.23442 32.1806C6.23442 27.8123 8.18981 23.1818 13.9046 22.1392C15.7415 23.5076 17.4532 24.0822 19.9997 24.0822C22.5501 24.0822 24.4886 23.4975 26.0719 22.1641C32.0052 23.2966 33.7656 28.1587 33.7656 32.1806Z" fill="#9CA3AF"/>
</svg>