<svg xmlns="http://www.w3.org/2000/svg" width="120" height="120" viewBox="0 0 120 120" fill="none">
    <path d="M120 60C120 76.1035 113.657 90.7256 103.33 101.502C92.4093 112.902 77.032 120 59.9991 120C42.9662 120 27.5907 112.902 16.6698 101.502C6.34436 90.7256 0 76.1035 0 60C0 26.8631 26.8629 0 59.9991 0C93.1371 0 120 26.8631 120 60Z" fill="white"/>
    <path d="M84.512 38.7077C84.512 52.2461 73.5368 63.2196 60.0008 63.2196C46.4618 63.2196 35.4881 52.2461 35.4881 38.7077C35.4881 25.1706 46.4618 14.1973 60.0008 14.1973C73.5368 14.1973 84.512 25.1706 84.512 38.7077Z" fill="#9CA3AF"/>
    <path d="M101.297 96.5417C100.817 97.0844 100.323 97.6197 99.8216 98.1423C89.7857 108.62 75.6538 115.143 59.9992 115.143C44.3462 115.143 30.2127 108.62 20.1768 98.1423C19.6736 97.6197 19.1819 97.0844 18.7033 96.5417C18.7033 83.4368 24.5694 69.5454 41.7139 66.4177C47.2244 70.5229 52.3596 72.2467 59.9992 72.2467C67.6503 72.2467 73.4657 70.4926 78.2156 66.4923C96.0157 69.8897 101.297 84.476 101.297 96.5417Z" fill="#9CA3AF"/>
</svg>