<svg xmlns="http://www.w3.org/2000/svg" width="38" height="38" viewBox="0 0 38 38" fill="none">
    <path d="M14.5443 14.5462L23.4531 23.4551M23.4531 14.5462L14.5443 23.4551M6.33203 19.0007C6.33203 22.3601 7.66655 25.5819 10.042 27.9573C12.4175 30.3328 15.6393 31.6673 18.9987 31.6673C22.3581 31.6673 25.5799 30.3328 27.9554 27.9573C30.3308 25.5819 31.6654 22.3601 31.6654 19.0007C31.6654 15.6412 30.3308 12.4194 27.9554 10.044C25.5799 7.6685 22.3581 6.33398 18.9987 6.33398C15.6393 6.33398 12.4175 7.6685 10.042 10.044C7.66655 12.4194 6.33203 15.6412 6.33203 19.0007Z" stroke="#4B4949" stroke-linecap="round" stroke-linejoin="round"/>
</svg>